<?xml version="1.0" encoding="iso-8859-1"?>
<!-- Generator: Adobe Illustrator 16.0.0, SVG Export Plug-In . SVG Version: 6.00 Build 0)  -->
<!DOCTYPE svg PUBLIC "-//W3C//DTD SVG 1.1//EN" "http://www.w3.org/Graphics/SVG/1.1/DTD/svg11.dtd">
<svg version="1.1" id="Capa_1" xmlns="http://www.w3.org/2000/svg" xmlns:xlink="http://www.w3.org/1999/xlink" x="0px" y="0px"
	 width="611.986px" height="611.986px" viewBox="0 0 611.986 611.986" style="enable-background:new 0 0 611.986 611.986;"
	 xml:space="preserve">
<g>
	<path d="M518.616,238.999c0.125-0.564,0.083-1.122-0.101-1.626l-30.8-93.266c-0.238-0.73-0.754-1.335-1.431-1.697l-61.766-32.55
		V85.112c0-0.866-0.374-1.691-1.038-2.249L327.599,0.674c-0.042-0.036-0.102-0.03-0.143-0.059c-0.434-0.333-0.914-0.546-1.442-0.611
		c-0.095-0.012-0.184,0.006-0.278,0.006c-0.492-0.012-0.985,0.089-1.441,0.333c-0.042,0.023-0.096,0.006-0.137,0.03
		c-0.018,0.012-0.018,0.029-0.036,0.042c-0.023,0.018-0.053,0.018-0.083,0.036L142.134,119.887
		c-1.074,0.706-1.573,2.017-1.234,3.251l37.683,139.421l-49.229-9.998c-0.071-0.012-0.136,0.036-0.208,0.023
		c-1.163-0.148-2.272,0.38-2.877,1.383c-0.042,0.065-0.125,0.083-0.161,0.154c-0.023,0.047,0,0.101-0.023,0.148
		c-0.036,0.077-0.101,0.136-0.13,0.219l-32.527,93.314c-0.03,0.089-0.018,0.178-0.042,0.261c-0.042,0.166-0.065,0.32-0.077,0.492
		c-0.018,0.208-0.012,0.403,0.018,0.605c0.018,0.154,0.042,0.297,0.089,0.451c0.065,0.226,0.166,0.427,0.285,0.629
		c0.047,0.089,0.06,0.184,0.119,0.267l85.321,118.916l-26.949,44.762c-0.012,0.018-0.006,0.041-0.018,0.064
		c-0.261,0.451-0.362,0.968-0.356,1.502c0,0.136,0.018,0.249,0.036,0.385c0.023,0.148,0,0.297,0.047,0.445
		c0.053,0.184,0.226,0.273,0.309,0.434c0.095,0.189,0.095,0.415,0.237,0.581l33.025,39.979l-5.684,25.982
		c-0.006,0.029,0.006,0.06,0,0.095c-0.047,0.255-0.03,0.505-0.006,0.766c0.012,0.137-0.012,0.267,0.018,0.397
		c0.054,0.243,0.178,0.469,0.291,0.694c0.059,0.118,0.077,0.249,0.154,0.361c0.006,0.013,0.023,0.019,0.029,0.03
		c0.012,0.018,0.012,0.041,0.024,0.06c0.136,0.184,0.32,0.29,0.48,0.433c0.125,0.106,0.226,0.243,0.368,0.326
		c0.291,0.179,0.605,0.279,0.931,0.345c0.054,0.012,0.101,0.047,0.154,0.059h0.012c0,0,0.006,0,0.012,0l54.842,8.432l13.813,12.258
		c0.036,0.03,0.077,0.036,0.113,0.065c0.035,0.03,0.053,0.077,0.095,0.107c0.071,0.053,0.16,0.029,0.231,0.077
		c0.403,0.243,0.831,0.386,1.288,0.421c0.083,0.006,0.154,0.077,0.237,0.077c0.059,0,0.119-0.035,0.178-0.041
		c0.071-0.007,0.137,0.023,0.208,0.018l72.25-9.352l56.817,12.728c0.208,0.047,0.428,0.071,0.635,0.071h0.007c0,0,0,0,0.006,0l0,0
		l0,0c0.118,0,0.231-0.006,0.35-0.018c0.237-0.03,0.434-0.137,0.646-0.214c0.102-0.036,0.214-0.024,0.314-0.071l38.556-19.022
		c0.106-0.054,0.172-0.148,0.272-0.214c0.054-0.035,0.118-0.018,0.172-0.053c0.101-0.077,0.154-0.185,0.243-0.268
		c0.137-0.131,0.262-0.255,0.374-0.409c0.131-0.184,0.226-0.368,0.314-0.569c0.042-0.096,0.119-0.172,0.148-0.273l11.694-38.051
		l48.523-26.807l0,0l0.018-0.012c0.06-0.035,0.089-0.106,0.148-0.148c0.355-0.231,0.7-0.498,0.938-0.884
		c0.012-0.023,0.012-0.048,0.023-0.071c0.006-0.018,0.029-0.023,0.035-0.035l22.263-39.38c0.059-0.106,0.059-0.226,0.101-0.332
		c0.101-0.237,0.189-0.469,0.226-0.73c0.023-0.172,0-0.338-0.006-0.516c-0.006-0.16,0.029-0.314,0-0.48
		c-0.019-0.077-0.065-0.131-0.089-0.202c-0.019-0.065,0-0.143-0.03-0.208c-0.041-0.118-0.137-0.195-0.195-0.308
		c-0.102-0.196-0.202-0.38-0.345-0.54c-0.124-0.154-0.267-0.279-0.421-0.404c-0.154-0.124-0.309-0.225-0.48-0.314
		c-0.106-0.053-0.185-0.154-0.297-0.195l-56.462-21.271l68.507-220.731C518.574,239.177,518.599,239.088,518.616,238.999z
		 M511.265,234.306l-75.798-16.976l-22.784-36.947l11.101-64.21l58.682,30.924L511.265,234.306z M482.132,519.266l-32.989-20.553
		l50.511-10.442L482.132,519.266z M477.332,523.271l-39.949,22.066l6.188-43.1L477.332,523.271z M420.449,583.488L381.8,530.753
		l48.19,21.698L420.449,583.488z M243.185,593.023l32.248-22.998l-22.998,31.21L243.185,593.023z M190.188,582.355l68.316-50.522
		l-21.989,57.643L190.188,582.355z M191.571,557.548l15.35-53.299l51.869,20.001l-71.497,52.878L191.571,557.548z M106.172,357.541
		l54.433,29.494l23.211,30.551l-3.507,4.771c-0.036,0.048-0.036,0.113-0.065,0.16c-0.196,0.297-0.321,0.623-0.398,0.974
		c-0.018,0.083-0.065,0.148-0.071,0.231c-0.054,0.397-0.036,0.812,0.083,1.222l17.384,59.512L106.172,357.541z M246.952,361.445
		c0.03-0.024,0.042-0.054,0.071-0.077c0.03-0.024,0.071-0.036,0.101-0.06l11.819-10.128l67.011-43.557l33.09,14.287l-25.323,41.931
		l-99.591,70.749l-46.452-12.234l27.703-37.688L246.952,361.445z M349.641,130.128c0.006,0.024,0.006,0.047,0.012,0.065
		l5.097,24.012l-30.04,10.276c-0.089,0.03-0.131,0.125-0.22,0.166c-0.397,0.184-0.741,0.433-1.032,0.766
		c-0.071,0.089-0.166,0.142-0.231,0.237c-0.237,0.344-0.415,0.73-0.486,1.163c-0.019,0.106,0.018,0.208,0.012,0.314
		c-0.006,0.059-0.054,0.101-0.054,0.16v135.369l-63.071,41L232.896,86.352l90.904-77.922L349.641,130.128z M361.104,155.546
		l-5.061-23.84l61.802-16.038l-10.704,61.915l-69.313-11.315l21.337-7.298C360.582,158.483,361.412,157.018,361.104,155.546z
		 M431.218,546.494l-50.729-22.844l57.132-21.77L431.218,546.494z M289.916,553.198l-19.248-26.807h86.603L289.916,553.198z
		 M365.216,529.613l-39.973,61.778l-31.269-33.423L365.216,529.613z M284.73,556.106l-40.032,28.545l20.992-55.026L284.73,556.106z
		 M266.989,520.459L238.26,438.94l95.799-68.056l34.959,149.574H266.989z M187.482,412.603l-19.105-25.146l38.822-1.674
		L187.482,412.603z M187.02,428.319l45.426,11.962l27.513,78.059l-52.552-20.268L187.02,428.319z M289.126,561.44l30.426,32.55
		l-60.146,7.785L289.126,561.44z M370.781,531.928l8.775,73.288l-49.081-10.994L370.781,531.928z M377.041,534.289l40.032,54.622
		l-31.625,15.604L377.041,534.289z M438.907,492.928l-41.829-19.609l45.781-7.915L438.907,492.928z M433.687,497.033l-56.474,21.515
		l11.968-42.376L433.687,497.033z M373.03,511.541l-33.921-145.147l23.703-39.261l36.716,90.596L373.03,511.541z M366.088,319.413
		c-0.089-0.213-0.243-0.374-0.368-0.558c-0.083-0.118-0.136-0.249-0.237-0.355c-0.261-0.279-0.569-0.493-0.907-0.647
		c-0.024-0.012-0.036-0.035-0.06-0.047l-0.012-0.006c-0.006-0.006-0.012-0.006-0.024-0.013l-35.843-15.474v-131.53l79.115,12.917
		l22.63,36.691l-43.562,150.167L366.088,319.413z M418.586,86.471v22.879l-63.777,16.548L330.393,10.88L418.586,86.471z
		 M288.486,30.887l-60.633,51.97c-0.742,0.629-1.122,1.59-1.021,2.558l27.234,262.128l-8.87,7.601l-46.173-39.693l-51.833-191.79
		L288.486,30.887z M180.315,268.968l10.567,39.094l-52.172-47.549L180.315,268.968z M130.089,260.685l64.312,58.61
		c0.012,0.012,0.03,0.018,0.047,0.029c0.006,0.006,0.012,0.023,0.018,0.03l45.971,39.516l-28.207,20.755l-48.956,2.112
		l-63.403-34.36L130.089,260.685z M200.145,498.684l-38.852,11.926l21.627-35.933L200.145,498.684z M159.869,517.255l40.732-12.502
		l-13.196,45.829L159.869,517.255z M494.823,483.209l-50.006,10.342l3.976-27.685L494.823,483.209z M444.082,459.173l-52.665,9.108
		l14.098-49.912c0.179-0.635,0.137-1.311-0.106-1.922l-14.993-37l45.247-155.994l76.268,17.082L444.082,459.173z"/>
</g>
<g>
</g>
<g>
</g>
<g>
</g>
<g>
</g>
<g>
</g>
<g>
</g>
<g>
</g>
<g>
</g>
<g>
</g>
<g>
</g>
<g>
</g>
<g>
</g>
<g>
</g>
<g>
</g>
<g>
</g>
</svg>
